<svg width="160" height="160" viewBox="0 0 160 160" fill="none" xmlns="http://www.w3.org/2000/svg">
<circle cx="80" cy="80" r="72.5" fill="white" stroke="#AB806C" stroke-width="15"/>
<path d="M39 120V111H111V120H39ZM57 102C52.05 102 47.8125 100.237 44.2875 96.7125C40.7625 93.1875 39 88.95 39 84V39H111C113.475 39 115.594 39.8812 117.356 41.6437C119.119 43.4062 120 45.525 120 48V61.5C120 63.975 119.119 66.0937 117.356 67.8562C115.594 69.6187 113.475 70.5 111 70.5H102V84C102 88.95 100.237 93.1875 96.7125 96.7125C93.1875 100.237 88.95 102 84 102H57ZM102 61.5H111V48H102V61.5Z" fill="#AB806C"/>
</svg>
