<svg width="152" height="152" viewBox="0 0 152 152" fill="none" xmlns="http://www.w3.org/2000/svg">
<circle cx="76" cy="76" r="71" fill="white" stroke="#AD8FBE" stroke-width="10"/>
<path d="M40 116.5V107.5H112V116.5H40ZM58 98.5C53.05 98.5 48.8125 96.7375 45.2875 93.2125C41.7625 89.6875 40 85.45 40 80.5V35.5H112C114.475 35.5 116.594 36.3812 118.356 38.1437C120.119 39.9062 121 42.025 121 44.5V58C121 60.475 120.119 62.5937 118.356 64.3562C116.594 66.1187 114.475 67 112 67H103V80.5C103 85.45 101.237 89.6875 97.7125 93.2125C94.1875 96.7375 89.95 98.5 85 98.5H58ZM103 58H112V44.5H103V58Z" fill="#AD8FBE"/>
</svg>
