<svg width="152" height="152" viewBox="0 0 152 152" fill="none" xmlns="http://www.w3.org/2000/svg">
<circle cx="76" cy="76" r="71" fill="#FF5C00" stroke="white" stroke-width="10"/>
<path d="M38.1667 119.625V110.042H114.833V119.625H38.1667ZM57.3333 100.458C52.0625 100.458 47.5503 98.5816 43.7969 94.8281C40.0434 91.0747 38.1667 86.5625 38.1667 81.2917V33.375H114.833C117.469 33.375 119.725 34.3134 121.602 36.1901C123.478 38.0668 124.417 40.3229 124.417 42.9583V57.3333C124.417 59.9687 123.478 62.2248 121.602 64.1016C119.725 65.9783 117.469 66.9167 114.833 66.9167H105.25V81.2917C105.25 86.5625 103.373 91.0747 99.6198 94.8281C95.8663 98.5816 91.3542 100.458 86.0833 100.458H57.3333ZM57.3333 90.875H86.0833C88.7187 90.875 90.9748 89.9366 92.8516 88.0599C94.7283 86.1832 95.6667 83.9271 95.6667 81.2917V42.9583H47.75V81.2917C47.75 83.9271 48.6884 86.1832 50.5651 88.0599C52.4418 89.9366 54.6979 90.875 57.3333 90.875ZM105.25 57.3333H114.833V42.9583H105.25V57.3333ZM57.3333 90.875H47.75H95.6667H57.3333Z" fill="white"/>
</svg>
