<svg width="134" height="123" viewBox="0 0 134 123" fill="none" xmlns="http://www.w3.org/2000/svg">
<path d="M67 123L57.3333 114.333C46.1111 104.222 36.8333 95.5 29.5 88.1667C22.1667 80.8333 16.3333 74.25 12 68.4167C7.66666 62.5833 4.63888 57.2222 2.91666 52.3333C1.19444 47.4444 0.333328 42.4444 0.333328 37.3333C0.333328 26.8889 3.83333 18.1667 10.8333 11.1667C17.8333 4.16666 26.5555 0.666664 37 0.666664C42.7778 0.666664 48.2778 1.88889 53.5 4.33333C58.7222 6.77778 63.2222 10.2222 67 14.6667C70.7778 10.2222 75.2778 6.77778 80.5 4.33333C85.7222 1.88889 91.2222 0.666664 97 0.666664C107.444 0.666664 116.167 4.16666 123.167 11.1667C130.167 18.1667 133.667 26.8889 133.667 37.3333C133.667 42.4444 132.806 47.4444 131.083 52.3333C129.361 57.2222 126.333 62.5833 122 68.4167C117.667 74.25 111.833 80.8333 104.5 88.1667C97.1667 95.5 87.8889 104.222 76.6667 114.333L67 123ZM67 105C77.6667 95.4444 86.4444 87.25 93.3333 80.4167C100.222 73.5833 105.667 67.6389 109.667 62.5833C113.667 57.5278 116.444 53.0278 118 49.0833C119.556 45.1389 120.333 41.2222 120.333 37.3333C120.333 30.6667 118.111 25.1111 113.667 20.6667C109.222 16.2222 103.667 14 97 14C91.7778 14 86.9444 15.4722 82.5 18.4167C78.0555 21.3611 75 25.1111 73.3333 29.6667H60.6667C59 25.1111 55.9444 21.3611 51.5 18.4167C47.0555 15.4722 42.2222 14 37 14C30.3333 14 24.7778 16.2222 20.3333 20.6667C15.8889 25.1111 13.6667 30.6667 13.6667 37.3333C13.6667 41.2222 14.4444 45.1389 16 49.0833C17.5555 53.0278 20.3333 57.5278 24.3333 62.5833C28.3333 67.6389 33.7778 73.5833 40.6667 80.4167C47.5555 87.25 56.3333 95.4444 67 105Z" fill="#FF0000"/>
</svg>
