<svg width="134" height="123" viewBox="0 0 134 123" fill="none" xmlns="http://www.w3.org/2000/svg">
<path d="M67 123L57.3333 114.333C46.1111 104.222 36.8333 95.5 29.5 88.1667C22.1667 80.8333 16.3333 74.25 12 68.4167C7.66667 62.5833 4.63889 57.2222 2.91667 52.3333C1.19445 47.4445 0.333336 42.4445 0.333336 37.3333C0.333336 26.8889 3.83334 18.1667 10.8333 11.1667C17.8333 4.16667 26.5556 0.666672 37 0.666672C42.7778 0.666672 48.2778 1.88889 53.5 4.33334C58.7222 6.77778 63.2222 10.2222 67 14.6667C70.7778 10.2222 75.2778 6.77778 80.5 4.33334C85.7222 1.88889 91.2222 0.666672 97 0.666672C107.444 0.666672 116.167 4.16667 123.167 11.1667C130.167 18.1667 133.667 26.8889 133.667 37.3333C133.667 42.4445 132.806 47.4445 131.083 52.3333C129.361 57.2222 126.333 62.5833 122 68.4167C117.667 74.25 111.833 80.8333 104.5 88.1667C97.1667 95.5 87.8889 104.222 76.6667 114.333L67 123Z" fill="#FF0000"/>
</svg>
