<svg width="160" height="160" viewBox="0 0 160 160" fill="none" xmlns="http://www.w3.org/2000/svg">
<path d="M30.8 120.8C37.6 115.6 45.2 111.5 53.6 108.5C62 105.5 70.8 104 80 104C89.2 104 98 105.5 106.4 108.5C114.8 111.5 122.4 115.6 129.2 120.8C133.867 115.333 137.5 109.133 140.1 102.2C142.7 95.2667 144 87.8667 144 80C144 62.2667 137.767 47.1667 125.3 34.7C112.833 22.2333 97.7333 16 80 16C62.2667 16 47.1667 22.2333 34.7 34.7C22.2333 47.1667 16 62.2667 16 80C16 87.8667 17.3 95.2667 19.9 102.2C22.5 109.133 26.1333 115.333 30.8 120.8ZM80 88C72.1333 88 65.5 85.3 60.1 79.9C54.7 74.5 52 67.8667 52 60C52 52.1333 54.7 45.5 60.1 40.1C65.5 34.7 72.1333 32 80 32C87.8667 32 94.5 34.7 99.9 40.1C105.3 45.5 108 52.1333 108 60C108 67.8667 105.3 74.5 99.9 79.9C94.5 85.3 87.8667 88 80 88ZM80 160C68.9333 160 58.5333 157.9 48.8 153.7C39.0667 149.5 30.6 143.8 23.4 136.6C16.2 129.4 10.5 120.933 6.3 111.2C2.1 101.467 0 91.0667 0 80C0 68.9333 2.1 58.5333 6.3 48.8C10.5 39.0667 16.2 30.6 23.4 23.4C30.6 16.2 39.0667 10.5 48.8 6.3C58.5333 2.1 68.9333 0 80 0C91.0667 0 101.467 2.1 111.2 6.3C120.933 10.5 129.4 16.2 136.6 23.4C143.8 30.6 149.5 39.0667 153.7 48.8C157.9 58.5333 160 68.9333 160 80C160 91.0667 157.9 101.467 153.7 111.2C149.5 120.933 143.8 129.4 136.6 136.6C129.4 143.8 120.933 149.5 111.2 153.7C101.467 157.9 91.0667 160 80 160ZM80 144C87.0667 144 93.7333 142.967 100 140.9C106.267 138.833 112 135.867 117.2 132C112 128.133 106.267 125.167 100 123.1C93.7333 121.033 87.0667 120 80 120C72.9333 120 66.2667 121.033 60 123.1C53.7333 125.167 48 128.133 42.8 132C48 135.867 53.7333 138.833 60 140.9C66.2667 142.967 72.9333 144 80 144ZM80 72C83.4667 72 86.3333 70.8667 88.6 68.6C90.8667 66.3333 92 63.4667 92 60C92 56.5333 90.8667 53.6667 88.6 51.4C86.3333 49.1333 83.4667 48 80 48C76.5333 48 73.6667 49.1333 71.4 51.4C69.1333 53.6667 68 56.5333 68 60C68 63.4667 69.1333 66.3333 71.4 68.6C73.6667 70.8667 76.5333 72 80 72Z" fill="#AB806C"/>
</svg>
