<svg width="128" height="128" viewBox="0 0 128 128" fill="none" xmlns="http://www.w3.org/2000/svg">
<path d="M25.05 96.3C30.4334 92.1833 36.45 88.9375 43.1 86.5625C49.75 84.1875 56.7167 83 64 83C71.2834 83 78.25 84.1875 84.9 86.5625C91.55 88.9375 97.5667 92.1833 102.95 96.3C106.644 91.9722 109.521 87.0639 111.579 81.575C113.638 76.0861 114.667 70.2278 114.667 64C114.667 49.9611 109.732 38.0069 99.8625 28.1375C89.9931 18.2681 78.0389 13.3333 64 13.3333C49.9611 13.3333 38.007 18.2681 28.1375 28.1375C18.2681 38.0069 13.3334 49.9611 13.3334 64C13.3334 70.2278 14.3625 76.0861 16.4209 81.575C18.4792 87.0639 21.3556 91.9722 25.05 96.3ZM64 70.3333C57.7722 70.3333 52.5209 68.1958 48.2459 63.9208C43.9709 59.6458 41.8334 54.3944 41.8334 48.1667C41.8334 41.9389 43.9709 36.6875 48.2459 32.4125C52.5209 28.1375 57.7722 26 64 26C70.2278 26 75.4792 28.1375 79.7542 32.4125C84.0292 36.6875 86.1667 41.9389 86.1667 48.1667C86.1667 54.3944 84.0292 59.6458 79.7542 63.9208C75.4792 68.1958 70.2278 70.3333 64 70.3333ZM64 127.333C55.2389 127.333 47.0056 125.671 39.3 122.346C31.5945 119.021 24.8917 114.508 19.1917 108.808C13.4917 103.108 8.97919 96.4056 5.65419 88.7C2.32919 80.9944 0.666687 72.7611 0.666687 64C0.666687 55.2389 2.32919 47.0056 5.65419 39.3C8.97919 31.5944 13.4917 24.8917 19.1917 19.1917C24.8917 13.4917 31.5945 8.97917 39.3 5.65417C47.0056 2.32917 55.2389 0.666672 64 0.666672C72.7611 0.666672 80.9945 2.32917 88.7 5.65417C96.4056 8.97917 103.108 13.4917 108.808 19.1917C114.508 24.8917 119.021 31.5944 122.346 39.3C125.671 47.0056 127.333 55.2389 127.333 64C127.333 72.7611 125.671 80.9944 122.346 88.7C119.021 96.4056 114.508 103.108 108.808 108.808C103.108 114.508 96.4056 119.021 88.7 122.346C80.9945 125.671 72.7611 127.333 64 127.333ZM64 114.667C69.5945 114.667 74.8722 113.849 79.8334 112.213C84.7945 110.576 89.3334 108.228 93.45 105.167C89.3334 102.106 84.7945 99.7569 79.8334 98.1208C74.8722 96.4847 69.5945 95.6667 64 95.6667C58.4056 95.6667 53.1278 96.4847 48.1667 98.1208C43.2056 99.7569 38.6667 102.106 34.55 105.167C38.6667 108.228 43.2056 110.576 48.1667 112.213C53.1278 113.849 58.4056 114.667 64 114.667ZM64 57.6667C66.7445 57.6667 69.0139 56.7694 70.8084 54.975C72.6028 53.1806 73.5 50.9111 73.5 48.1667C73.5 45.4222 72.6028 43.1528 70.8084 41.3583C69.0139 39.5639 66.7445 38.6667 64 38.6667C61.2556 38.6667 58.9861 39.5639 57.1917 41.3583C55.3972 43.1528 54.5 45.4222 54.5 48.1667C54.5 50.9111 55.3972 53.1806 57.1917 54.975C58.9861 56.7694 61.2556 57.6667 64 57.6667Z" fill="#AD8FBE"/>
</svg>
